<?xml version="1.0" standalone="no"?>
<!DOCTYPE svg PUBLIC "-//W3C//DTD SVG 20010904//EN"
 "http://www.w3.org/TR/2001/REC-SVG-20010904/DTD/svg10.dtd">
<svg version="1.0" xmlns="http://www.w3.org/2000/svg"
 width="513.581423pt" height="405.933455pt" viewBox="0 0 513.581423 405.933455"
 preserveAspectRatio="xMidYMid meet">
<metadata>
Created by potrace 1.16, written by Peter Selinger 2001-2019
</metadata>
<g transform="translate(-127.214762,586.895192) scale(0.100000,-0.100000)"
fill="#000000" stroke="none">
<path d="M2060 5864 c-123 -18 -185 -42 -245 -96 -46 -39 -67 -81 -59 -112 8
-33 -32 -103 -69 -122 -17 -9 -96 -20 -212 -29 -101 -7 -190 -17 -196 -20 -8
-5 -9 -28 -4 -74 10 -93 15 -98 55 -55 l35 36 -40 35 -40 36 39 -6 c50 -8 69
-27 69 -68 0 -26 -9 -41 -41 -70 -23 -20 -42 -41 -42 -46 0 -6 13 -28 29 -50
22 -30 51 -51 118 -83 83 -41 94 -44 194 -48 97 -4 111 -2 172 23 77 30 112
26 137 -18 13 -23 13 -30 -3 -61 -10 -21 -26 -38 -40 -41 -23 -6 -22 -9 28
-56 107 -101 126 -219 61 -392 -22 -62 -36 -115 -36 -145 l0 -47 18 30 c21 33
69 77 156 143 156 117 172 286 46 472 -83 122 -87 175 -28 321 33 84 43 121
48 194 l6 90 18 -40 c27 -60 17 -152 -28 -255 -58 -132 -46 -200 52 -292 49
-46 118 -88 146 -88 8 0 29 28 48 63 30 54 50 74 154 152 85 65 124 101 138
128 18 38 18 39 -2 95 -113 312 -128 343 -203 401 -27 22 -73 49 -103 60 -86
32 -275 49 -376 35z m-131 -268 c19 -19 5 -36 -29 -36 -16 0 -33 -7 -38 -16
-12 -21 -46 -14 -50 10 -2 10 7 29 20 43 18 19 29 23 53 19 16 -4 36 -13 44
-20z m-32 -52 c-3 -3 -12 -4 -19 -1 -8 3 -5 6 6 6 11 1 17 -2 13 -5z"/>
<path d="M6143 5457 c26 -82 28 -226 4 -322 -22 -86 -77 -194 -139 -274 -128
-163 -363 -287 -582 -307 -59 -5 -103 -1 -232 24 -280 55 -293 55 -869 57
-604 1 -661 6 -852 70 -324 109 -537 310 -670 635 -8 20 -9 14 -5 -30 4 -51 1
-59 -29 -99 -19 -24 -79 -76 -133 -115 -55 -39 -104 -79 -110 -88 -7 -12 -5
-44 8 -113 24 -125 17 -178 -33 -280 -45 -91 -93 -144 -201 -224 -80 -58 -120
-98 -120 -118 0 -7 -4 -13 -10 -13 -17 0 -11 45 15 126 14 43 23 79 20 82 -2
3 -38 -29 -79 -69 -65 -66 -76 -83 -95 -143 -25 -81 -26 -131 -6 -210 30 -114
75 -191 75 -127 0 33 59 137 104 182 49 50 142 103 196 112 l35 6 -40 -32
c-120 -96 -183 -181 -209 -282 -45 -172 4 -322 165 -500 101 -113 115 -120 79
-42 -53 114 -62 259 -22 350 l17 39 0 -114 c0 -106 2 -117 31 -178 17 -36 70
-114 118 -174 100 -125 139 -195 168 -305 19 -70 20 -102 19 -426 -2 -348 -6
-397 -37 -476 -18 -45 -43 -59 -103 -59 -75 0 -151 -87 -151 -172 l0 -38 222
2 223 3 37 140 c20 77 40 151 43 164 l6 24 32 -30 c31 -30 77 -59 77 -49 0 3
-9 22 -19 43 -24 47 -37 138 -22 148 6 3 11 2 11 -3 0 -16 53 -63 92 -83 49
-25 52 -24 28 8 -48 67 -102 263 -72 263 6 0 14 -9 17 -20 4 -11 32 -48 63
-81 l56 -61 17 48 c28 79 24 158 -11 229 -16 33 -37 71 -47 84 -12 17 5 8 53
-27 73 -53 118 -106 130 -156 12 -48 27 -3 19 57 -10 74 -43 140 -114 229 -33
43 -59 78 -56 78 3 0 42 -18 86 -40 90 -46 93 -36 14 40 -76 73 -133 156 -155
227 -11 37 -19 68 -17 70 2 2 16 -15 32 -38 41 -63 201 -209 229 -209 3 0 -5
17 -18 38 -27 40 -45 106 -46 161 0 28 3 33 20 28 33 -8 23 -1 -35 27 -83 41
-155 136 -184 244 -25 90 -12 251 24 297 14 18 14 15 9 -45 -12 -129 34 -262
121 -353 47 -49 132 -97 173 -97 12 0 22 -2 22 -4 0 -2 -13 -30 -30 -61 -32
-60 -37 -102 -19 -154 12 -35 21 -38 40 -14 8 9 47 41 86 70 106 78 183 193
183 273 0 11 5 20 10 20 13 0 13 -95 -1 -145 -6 -22 -22 -61 -34 -87 -13 -27
-20 -48 -17 -48 12 0 99 74 124 105 53 66 72 101 88 159 l17 61 13 -39 c12
-38 10 -127 -5 -171 -9 -29 100 89 147 158 22 32 41 57 42 55 1 -2 0 -36 -3
-76 -6 -68 -5 -72 9 -51 8 13 39 53 69 89 29 36 71 91 93 123 21 31 40 57 43
57 5 0 -15 -68 -36 -123 -11 -26 -19 -52 -19 -58 0 -33 270 226 338 323 l39
58 7 -48 c8 -64 46 -140 90 -181 40 -39 40 -38 25 42 -19 108 16 295 71 367
30 40 31 19 3 -61 -22 -61 -26 -92 -26 -179 -1 -209 78 -385 244 -547 100 -97
166 -144 367 -260 230 -132 293 -188 351 -315 21 -46 45 -112 54 -148 18 -76
41 -275 33 -288 -3 -5 -26 -12 -52 -15 -76 -8 -124 -71 -124 -164 l0 -33 197
0 196 0 -6 177 c-4 98 -13 237 -22 308 -8 72 -15 157 -15 190 0 114 -6 127
-97 227 -106 116 -148 198 -163 317 -12 86 -25 122 -65 176 -36 48 -61 104
-85 190 -33 119 -80 197 -177 293 -47 46 -82 86 -79 89 3 3 31 -5 62 -18 81
-32 168 -117 199 -193 l23 -60 8 40 c11 57 -12 233 -40 315 -31 88 -72 158
-157 263 -64 79 -107 146 -93 146 3 0 37 -29 75 -64 114 -105 213 -138 341
-111 76 16 185 64 212 94 17 19 17 19 -21 6 -40 -15 -151 -18 -193 -6 -17 5 1
9 60 13 47 4 103 14 124 23 98 42 210 134 254 209 l23 39 -25 -17 c-33 -21
-136 -59 -143 -53 -3 3 10 13 29 22 119 61 213 180 233 295 5 30 4 32 -6 15
-29 -49 -93 -126 -127 -152 l-37 -28 22 30 c34 48 90 166 107 224 37 125 11
306 -64 450 -39 75 -124 182 -160 201 -17 9 -16 5 3 -53z"/>
<path d="M1450 5091 c0 -22 54 -71 98 -88 36 -14 74 -18 162 -18 149 1 200 21
200 80 0 14 -7 16 -42 11 -24 -4 -99 -9 -168 -12 -111 -5 -131 -3 -180 15 -62
24 -70 25 -70 12z"/>
<path d="M4530 3385 c0 -8 11 -44 25 -80 76 -203 179 -324 381 -450 71 -43
152 -101 180 -127 117 -110 158 -271 119 -472 -22 -116 -31 -130 -91 -137 -28
-4 -60 -12 -72 -18 -37 -20 -74 -78 -80 -126 l-5 -45 186 0 c182 0 187 0 201
23 18 27 35 112 80 387 19 118 42 235 51 259 8 24 15 54 15 66 0 45 -80 117
-205 185 -209 114 -343 246 -419 411 -37 80 -42 84 -145 120 -70 24 -221 27
-221 4z"/>
<path d="M2342 3097 c-7 -516 -80 -914 -185 -1018 -22 -21 -39 -27 -93 -32
-57 -4 -70 -9 -100 -38 -35 -34 -75 -132 -60 -146 13 -14 411 -10 427 4 8 7
55 93 104 192 50 99 92 180 95 180 3 1 11 -13 17 -30 19 -49 33 -25 33 57 0
41 3 74 7 74 4 0 21 -14 38 -30 l31 -30 -10 59 c-6 39 -6 70 1 92 l10 34 15
-35 c14 -34 15 -29 23 132 14 314 -24 465 -148 586 -60 58 -190 172 -197 172
-3 0 -6 -100 -8 -223z"/>
</g>
</svg>
